<?xml version="1.0" encoding="UTF-8" standalone="no"?>
<!-- Created with Inkscape (http://www.inkscape.org/) -->

<svg
   xmlns:dc="http://purl.org/dc/elements/1.1/"
   xmlns:cc="http://creativecommons.org/ns#"
   xmlns:rdf="http://www.w3.org/1999/02/22-rdf-syntax-ns#"
   xmlns:svg="http://www.w3.org/2000/svg"
   xmlns="http://www.w3.org/2000/svg"
   xmlns:sodipodi="http://sodipodi.sourceforge.net/DTD/sodipodi-0.dtd"
   xmlns:inkscape="http://www.inkscape.org/namespaces/inkscape"
   width="210mm"
   height="297mm"
   viewBox="0 0 744.09448819 1052.3622047"
   id="svg3349"
   version="1.1"
   inkscape:version="0.91 r13725"
   sodipodi:docname="logo-practice.svg">
  <defs
     id="defs3351" />
  <sodipodi:namedview
     id="base"
     pagecolor="#ffffff"
     bordercolor="#666666"
     borderopacity="1.0"
     inkscape:pageopacity="0.0"
     inkscape:pageshadow="2"
     inkscape:zoom="0.49497475"
     inkscape:cx="-496.8162"
     inkscape:cy="-676.89054"
     inkscape:document-units="px"
     inkscape:current-layer="layer1"
     showgrid="true"
     inkscape:window-width="1253"
     inkscape:window-height="755"
     inkscape:window-x="27"
     inkscape:window-y="1"
     inkscape:window-maximized="1">
    <inkscape:grid
       type="xygrid"
       id="grid3357" />
  </sodipodi:namedview>
  <metadata
     id="metadata3354">
    <rdf:RDF>
      <cc:Work
         rdf:about="">
        <dc:format>image/svg+xml</dc:format>
        <dc:type
           rdf:resource="http://purl.org/dc/dcmitype/StillImage" />
        <dc:title></dc:title>
      </cc:Work>
    </rdf:RDF>
  </metadata>
  <g
     inkscape:label="Layer 1"
     inkscape:groupmode="layer"
     id="layer1">
    <path
       style="fill:#87cdde;fill-rule:evenodd;stroke:#000000;stroke-width:1px;stroke-linecap:butt;stroke-linejoin:miter;stroke-opacity:1"
       d="m -722.85714,1363.9938 c -43.2668,0.2661 -110.03538,17.9537 -145.71429,48.5714 -39.85282,29.4511 -103.24408,114.9285 -105.71428,174.2857 -39.99999,40 -27.39919,102.8572 -14.28572,142.8572 l 31.42857,68.5714 80,77.1428 111.42857,20 134.28572,-40 85.71428,-94.2857 37.14286,-128.5714 -5.71428,-125.7143 c -26.08678,-30.127 -52.1894,-60.0161 -85.71429,21.4286 l -85.71429,21.4286 c -21.74773,-27.0593 -30.6319,-120.5631 -37.14285,-185.7143 z"
       id="path3479"
       inkscape:connector-curvature="0"
       sodipodi:nodetypes="cccccccccccccc" />
    <path
       style="fill:#87cdde"
       id="path3481"
       sodipodi:type="arc"
       sodipodi:cx="-580"
       sodipodi:cy="1592.3622"
       sodipodi:rx="20"
       sodipodi:ry="20"
       sodipodi:start="5.8316861"
       sodipodi:end="4.7260724"
       sodipodi:open="true"
       d="m -562.00412,1583.6359 a 20,20 0 0 1 -4.68977,23.6577 20,20 0 0 1 -24.03959,1.9444 20,20 0 0 1 -8.4309,-22.5965 20,20 0 0 1 19.43804,-14.2774" />
    <path
       style="fill:#ffffff"
       id="path3485"
       sodipodi:type="arc"
       sodipodi:cx="-577.78687"
       sodipodi:cy="1592.5652"
       sodipodi:rx="40"
       sodipodi:ry="40"
       sodipodi:start="5.8316861"
       sodipodi:end="4.7260724"
       sodipodi:open="true"
       d="m -541.79511,1575.1126 a 40,40 0 0 1 -9.37954,47.3154 40,40 0 0 1 -48.07917,3.8888 40,40 0 0 1 -16.86181,-45.193 40,40 0 0 1 38.87608,-28.5549" />
    <path
       style="fill:#53676c"
       id="path3490"
       sodipodi:type="arc"
       sodipodi:cx="-800"
       sodipodi:cy="1432.3622"
       sodipodi:rx="20"
       sodipodi:ry="20"
       sodipodi:start="5.8316861"
       sodipodi:end="4.7260724"
       sodipodi:open="true"
       d="m -782.00412,1423.6359 a 20,20 0 0 1 -4.68977,23.6577 20,20 0 0 1 -24.03959,1.9444 20,20 0 0 1 -8.4309,-22.5965 20,20 0 0 1 19.43804,-14.2774" />
    <path
       d="m -782.00412,1423.6359 a 20,20 0 0 1 -4.68977,23.6577 20,20 0 0 1 -24.03959,1.9444 20,20 0 0 1 -8.4309,-22.5965 20,20 0 0 1 19.43804,-14.2774"
       sodipodi:open="true"
       sodipodi:end="4.7260724"
       sodipodi:start="5.8316861"
       sodipodi:ry="20"
       sodipodi:rx="20"
       sodipodi:cy="1432.3622"
       sodipodi:cx="-800"
       sodipodi:type="arc"
       id="path3492"
       style="fill:#ffffff" />
    <path
       style="fill:#ffffff"
       id="path3556"
       sodipodi:type="arc"
       sodipodi:cx="-867.87817"
       sodipodi:cy="1498.017"
       sodipodi:rx="20"
       sodipodi:ry="20"
       sodipodi:start="5.8316861"
       sodipodi:end="4.7260724"
       sodipodi:open="true"
       d="m -849.88229,1489.2907 a 20,20 0 0 1 -4.68978,23.6577 20,20 0 0 1 -24.03958,1.9444 20,20 0 0 1 -8.4309,-22.5965 20,20 0 0 1 19.43804,-14.2775" />
    <path
       style="fill:#ffffff"
       id="path3558"
       sodipodi:type="arc"
       sodipodi:cx="-924.24365"
       sodipodi:cy="1582.0576"
       sodipodi:rx="20"
       sodipodi:ry="20"
       sodipodi:start="5.8316861"
       sodipodi:end="4.7260724"
       sodipodi:open="true"
       d="m -906.24777,1573.3313 a 20,20 0 0 1 -4.68978,23.6577 20,20 0 0 1 -24.03958,1.9444 20,20 0 0 1 -8.4309,-22.5965 20,20 0 0 1 19.43804,-14.2774" />
    <path
       style="fill:#ffffff"
       id="path3560"
       sodipodi:type="arc"
       sodipodi:cx="-940"
       sodipodi:cy="1672.3622"
       sodipodi:rx="20"
       sodipodi:ry="20"
       sodipodi:start="5.8316861"
       sodipodi:end="4.7260724"
       sodipodi:open="true"
       d="m -922.00412,1663.6359 a 20,20 0 0 1 -4.68977,23.6577 20,20 0 0 1 -24.03959,1.9444 20,20 0 0 1 -8.4309,-22.5965 20,20 0 0 1 19.43804,-14.2774" />
    <path
       style="fill:#ffffff"
       id="path3562"
       sodipodi:type="arc"
       sodipodi:cx="-904.04059"
       sodipodi:cy="1764.281"
       sodipodi:rx="20"
       sodipodi:ry="20"
       sodipodi:start="5.8316861"
       sodipodi:end="4.7260724"
       sodipodi:open="true"
       d="m -886.04471,1755.5547 a 20,20 0 0 1 -4.68977,23.6577 20,20 0 0 1 -24.03959,1.9444 20,20 0 0 1 -8.4309,-22.5965 20,20 0 0 1 19.43804,-14.2774" />
    <path
       style="fill:#ffffff"
       id="path3564"
       sodipodi:type="arc"
       sodipodi:cx="-844.64978"
       sodipodi:cy="1826.3013"
       sodipodi:rx="20"
       sodipodi:ry="20"
       sodipodi:start="5.8316861"
       sodipodi:end="4.7260724"
       sodipodi:open="true"
       d="m -826.6539,1817.575 a 20,20 0 0 1 -4.68977,23.6577 20,20 0 0 1 -24.03959,1.9444 20,20 0 0 1 -8.4309,-22.5965 20,20 0 0 1 19.43804,-14.2775" />
    <path
       style="fill:#b3b3b3;fill-rule:evenodd;stroke:#000000;stroke-width:1px;stroke-linecap:butt;stroke-linejoin:miter;stroke-opacity:1"
       d="m -531.31983,1524.484 -20,160 40,240 40,0 20,-240 -20,-160 z"
       id="path3566"
       inkscape:connector-curvature="0" />
    <path
       style="fill:#f2f2f2;fill-rule:evenodd;stroke:#000000;stroke-width:1px;stroke-linecap:butt;stroke-linejoin:miter;stroke-opacity:1"
       d="m -473.34014,1508.5246 -60,0 -20,-60 20,-80 60,-40 20,0 -20,40 0,60 20,40 z"
       id="path3570"
       inkscape:connector-curvature="0" />
    <rect
       style="fill:#999999"
       id="rect3572"
       width="614.03717"
       height="151.60817"
       x="-2393.2993"
       y="-593.13599"
       transform="matrix(0.32944768,-0.94417383,0.62310016,0.78214205,0,0)" />
    <path
       style="fill:none;fill-rule:evenodd;stroke:#000000;stroke-width:1px;stroke-linecap:butt;stroke-linejoin:miter;stroke-opacity:1"
       d="M -1120,1772.3622 Z"
       id="path3584"
       inkscape:connector-curvature="0" />
    <text
       transform="scale(0.67661479,1.4779458)"
       sodipodi:linespacing="125%"
       id="use3596"
       y="1378.5869"
       x="-1719.7318"
       style="font-style:normal;font-weight:normal;font-size:90.32107544px;line-height:125%;font-family:sans-serif;letter-spacing:0px;word-spacing:0px;fill:#000000;fill-opacity:1;stroke:none;stroke-width:1px;stroke-linecap:butt;stroke-linejoin:miter;stroke-opacity:1"
       xml:space="preserve"><tspan
         y="1378.5869"
         x="-1719.7318"
         id="tspan3600"
         sodipodi:role="line">MILLENNIUM DESIGN INC.</tspan></text>
  </g>
</svg>
